<svg width="90" height="91" viewBox="0 0 90 91" fill="none" xmlns="http://www.w3.org/2000/svg">
<path d="M82.3875 9.45186C79.6875 6.37686 75.675 4.46436 71.25 4.46436C67.05 4.46436 63.225 6.18936 60.4875 9.00186C58.9125 10.6144 57.7125 12.5644 57 14.7394C56.5125 16.2394 56.25 17.8144 56.25 19.4644C56.25 22.2769 57.0375 24.9394 58.425 27.1894C59.175 28.4644 60.15 29.6269 61.275 30.6019C63.9 33.0019 67.3875 34.4644 71.25 34.4644C72.9 34.4644 74.475 34.2019 75.9375 33.6769C79.3875 32.5894 82.275 30.2269 84.075 27.1894C84.8625 25.9144 85.4625 24.4519 85.8 22.9519C86.1 21.8269 86.25 20.6644 86.25 19.4644C86.25 15.6394 84.7875 12.1144 82.3875 9.45186ZM76.8375 22.2019H74.0625V25.1269C74.0625 26.6644 72.7875 27.9394 71.25 27.9394C69.7125 27.9394 68.4375 26.6644 68.4375 25.1269V22.2019H65.6625C64.125 22.2019 62.85 20.9269 62.85 19.3894C62.85 17.8519 64.125 16.5769 65.6625 16.5769H68.4375V13.9144C68.4375 12.3769 69.7125 11.1019 71.25 11.1019C72.7875 11.1019 74.0625 12.3769 74.0625 13.9144V16.5769H76.8375C78.375 16.5769 79.65 17.8519 79.65 19.3894C79.65 20.9269 78.4125 22.2019 76.8375 22.2019Z" fill="#35BE9D"/>
<path d="M82.5 45.7144C82.5 40.8019 81.5625 36.0769 79.8 31.7644C78.6375 32.5894 77.325 33.2269 75.9375 33.6769C75.525 33.8269 75.1125 33.9394 74.6625 34.0519C76.0875 37.6519 76.875 41.5894 76.875 45.7144C76.875 54.4144 73.35 62.3269 67.65 68.1019C66.5625 66.7144 65.175 65.4394 63.525 64.3519C53.3625 57.5269 36.7125 57.5269 26.475 64.3519C24.825 65.4394 23.475 66.7144 22.35 68.1019C16.65 62.3269 13.125 54.4144 13.125 45.7144C13.125 28.1269 27.4125 13.8394 45 13.8394C49.0875 13.8394 53.025 14.6269 56.625 16.0519C56.7375 15.6019 56.85 15.1894 57 14.7394C57.45 13.3519 58.0875 12.0769 58.95 10.9144C54.6375 9.15186 49.9125 8.21436 45 8.21436C24.3375 8.21436 7.5 25.0519 7.5 45.7144C7.5 56.5894 12.1875 66.3769 19.6125 73.2394C19.6125 73.2769 19.6125 73.2769 19.575 73.3144C19.95 73.6894 20.4 73.9893 20.775 74.3269C21 74.5144 21.1875 74.7019 21.4125 74.8519C22.0875 75.4144 22.8375 75.9394 23.55 76.4644C23.8125 76.6519 24.0375 76.8019 24.3 76.9894C25.0125 77.4769 25.7625 77.9269 26.55 78.3394C26.8125 78.4894 27.1125 78.6769 27.375 78.8269C28.125 79.2394 28.9125 79.6143 29.7375 79.9519C30.0375 80.1019 30.3375 80.2519 30.6375 80.3644C31.4625 80.7019 32.2875 81.0019 33.1125 81.2644C33.4125 81.3769 33.7125 81.4894 34.0125 81.5644C34.9125 81.8269 35.8125 82.0519 36.7125 82.2769C36.975 82.3519 37.2375 82.4268 37.5375 82.4644C38.5875 82.6894 39.6375 82.8394 40.725 82.9519C40.875 82.9519 41.025 82.9894 41.175 83.0269C42.45 83.1394 43.725 83.2144 45 83.2144C46.275 83.2144 47.55 83.1394 48.7875 83.0269C48.9375 83.0269 49.0875 82.9894 49.2375 82.9519C50.325 82.8394 51.375 82.6894 52.425 82.4644C52.6875 82.4268 52.95 82.3144 53.25 82.2769C54.15 82.0519 55.0875 81.8644 55.95 81.5644C56.25 81.4519 56.55 81.3394 56.85 81.2644C57.675 80.9644 58.5375 80.7019 59.325 80.3644C59.625 80.2519 59.925 80.1019 60.225 79.9519C61.0125 79.6143 61.8 79.2394 62.5875 78.8269C62.8875 78.6769 63.15 78.4894 63.4125 78.3394C64.1625 77.8894 64.9125 77.4769 65.6625 76.9894C65.925 76.8394 66.15 76.6519 66.4125 76.4644C67.1625 75.9394 67.875 75.4144 68.55 74.8519C68.775 74.6644 68.9625 74.4769 69.1875 74.3269C69.6 73.9893 70.0125 73.6519 70.3875 73.3144C70.3875 73.2769 70.3875 73.2769 70.35 73.2394C77.8125 66.3769 82.5 56.5894 82.5 45.7144Z" fill="#35BE9D"/>
<path d="M45 26.7026C37.2375 26.7026 30.9375 33.0026 30.9375 40.7651C30.9375 48.3776 36.9 54.5651 44.8125 54.7901C44.925 54.7901 45.075 54.7901 45.15 54.7901C45.225 54.7901 45.3375 54.7901 45.4125 54.7901C45.45 54.7901 45.4875 54.7901 45.4875 54.7901C53.0625 54.5276 59.025 48.3776 59.0625 40.7651C59.0625 33.0026 52.7625 26.7026 45 26.7026Z" fill="#35BE9D"/>
</svg>
